<?xml version="1.0" encoding="utf-8"?>
<!-- Generator: Adobe Illustrator 19.2.1, SVG Export Plug-In . SVG Version: 6.00 Build 0)  -->
<svg version="1.1" id="Layer_1" xmlns="http://www.w3.org/2000/svg" xmlns:xlink="http://www.w3.org/1999/xlink" x="0px" y="0px"
	 viewBox="0 0 794.5 800.6" style="enable-background:new 0 0 794.5 800.6;" xml:space="preserve">
<path style="fill:#7FD13B;" d="M244.9,403c0.7,22.5,19.4,40.5,41.9,40.6l1.5,0c23.2-0.7,41.3-20.2,40.6-43.4
	c-0.7-22.5-19.4-40.5-41.9-40.6l-1.5,0c-1.5,0-3.7,0-5.2,0.7c-30.6-51-43.2-106.5-38.6-166.5c3.1-45,18.2-83.9,44.5-116.1
	c21.8-27.7,63.8-41.1,92.3-41.8c79.4-1.3,113,97.7,115.1,137.4c9.7,2.3,26.2,7.5,37.5,11.3C522.1,63.3,447.3,0.1,375.4,0
	c-67.5-0.1-129.8,48.4-154.6,120.3c-34.7,95.9-12.4,188.1,29.4,260.9C246.4,386.5,244.1,394.7,244.9,403z"/>
<path style="fill:#60B5CC;" d="M552.2,397.6c-0.7-22.5-19.4-40.5-41.9-40.6l-1.5,0c-23.2,0.7-41.3,20.2-40.6,43.4
	c0.7,22.5,19.4,40.5,41.9,40.6l1.5,0c1.5,0,3.7,0,5.2-0.7c30.6,51,43.2,106.5,38.6,166.5c-3.1,45-18.2,83.9-44.5,116.1
	c-21.8,27.7-63.8,41.1-92.3,41.8c-79.4,1.3-113-97.7-115.1-137.4c-9.7-2.3-26.2-7.5-37.5-11.3c8.7,121.4,83.6,184.5,155.5,184.7
	c67.5,0.1,129.8-48.4,154.6-120.3c34.7-95.9,12.4-188.1-29.4-260.9C550.7,414.1,552.9,405.9,552.2,397.6z"/>
<path style="fill:#F0AD00;" d="M391.5,248c-22.5,0.7-40.5,19.4-40.6,41.9l0,1.5c0.7,23.2,20.2,41.3,43.4,40.6
	c22.5-0.7,40.5-19.4,40.6-41.9l0-1.5c0-1.5,0-3.7-0.7-5.2c51-30.6,106.5-43.2,166.5-38.6c45,3.1,83.9,18.2,116.1,44.5
	c27.7,21.8,41.1,63.8,41.8,92.3c1.3,79.4-97.7,113-137.4,115.1c-2.3,9.7-7.5,26.2-11.3,37.5c121.4-8.7,184.5-83.6,184.7-155.5
	c0.1-67.5-48.4-129.8-120.3-154.6c-95.9-34.7-188.1-12.4-260.9,29.4C408,249.5,399.8,247.3,391.5,248z"/>
<path style="fill:#5A6378;" d="M403,552.6c22.5-0.7,40.5-19.4,40.6-41.9l0-1.5c-0.7-23.2-20.2-41.3-43.4-40.6
	c-22.5,0.7-40.5,19.4-40.6,41.9l0,1.5c0,1.5,0,3.7,0.7,5.2c-51,30.6-106.5,43.2-166.5,38.6c-45-3.1-83.9-18.2-116.1-44.5
	c-27.7-21.8-41.1-63.8-41.8-92.3c-1.3-79.4,97.7-113,137.4-115.1c2.3-9.7,7.5-26.2,11.3-37.5C63.3,275.3,0.1,350.1,0,422.1
	c-0.1,67.5,48.4,129.8,120.3,154.6c95.9,34.7,188.1,12.4,260.9-29.4C386.5,551,394.7,553.3,403,552.6z"/>
</svg>
